HIERARCHY
ROOT Hips
{
	OFFSET 0.000000 0.000000 0.000000
	CHANNELS 6 Xposition Yposition Zposition Zrotation Yrotation Xrotation 
	JOINT LHipJoint
	{
		OFFSET 0.000000 0.000000 0.000000
		CHANNELS 3 Zrotation Yrotation Xrotation
		JOINT LeftUpLeg
		{
			OFFSET 1.363060 -1.794630 0.839290
			CHANNELS 3 Zrotation Yrotation Xrotation
			JOINT LeftLeg
			{
				OFFSET 2.448110 -6.726130 0.000000
				CHANNELS 3 Zrotation Yrotation Xrotation
				JOINT LeftFoot
				{
					OFFSET 2.562200 -7.039590 0.000000
					CHANNELS 3 Zrotation Yrotation Xrotation
					JOINT LeftToeBase
					{
						OFFSET 0.157640 -0.433110 2.322550
						CHANNELS 3 Zrotation Yrotation Xrotation
						End Site
						{
							OFFSET 0.000000 0.000000 0.000000
						}
					}
				}
			}
		}
	}
	JOINT RHipJoint
	{
		OFFSET 0.000000 0.000000 0.000000
		CHANNELS 3 Zrotation Yrotation Xrotation
		JOINT RightUpLeg
		{
			OFFSET -1.305520 -1.794630 0.839290
			CHANNELS 3 Zrotation Yrotation Xrotation
			JOINT RightLeg
			{
				OFFSET -2.542530 -6.985550 0.000000
				CHANNELS 3 Zrotation Yrotation Xrotation
				JOINT RightFoot
				{
					OFFSET -2.568260 -7.056230 0.000000
					CHANNELS 3 Zrotation Yrotation Xrotation
					JOINT RightToeBase
					{
						OFFSET -0.164730 -0.452590 2.363150
						CHANNELS 3 Zrotation Yrotation Xrotation
						End Site
						{
							OFFSET 0.000000 0.000000 0.000000
						}
					}
				}
			}
		}
	}
	JOINT LowerBack
	{
		OFFSET 0.000000 0.000000 0.000000
		CHANNELS 3 Zrotation Yrotation Xrotation
		JOINT Spine
		{
			OFFSET 0.028270 2.035590 -0.193380
			CHANNELS 3 Zrotation Yrotation Xrotation
			JOINT Spine1
			{
				OFFSET 0.056720 2.048850 -0.042750
				CHANNELS 3 Zrotation Yrotation Xrotation
				JOINT Neck
				{
					OFFSET 0.000000 0.000000 0.000000
					CHANNELS 3 Zrotation Yrotation Xrotation
					JOINT Neck1
					{
						OFFSET -0.054170 1.746240 0.172020
						CHANNELS 3 Zrotation Yrotation Xrotation
						JOINT Head
						{
							OFFSET 0.104070 1.761360 -0.123970
							CHANNELS 3 Zrotation Yrotation Xrotation
							End Site
							{
								OFFSET 0.000000 0.000000 0.000000
							}
						}
					}
				}
				JOINT LeftShoulder
				{
					OFFSET 0.000000 0.000000 0.000000
					CHANNELS 3 Zrotation Yrotation Xrotation
					JOINT LeftArm
					{
						OFFSET 3.362410 1.200890 -0.311210
						CHANNELS 3 Zrotation Yrotation Xrotation
						JOINT LeftForeArm
						{
							OFFSET 4.983000 -0.000000 -0.000000
							CHANNELS 3 Zrotation Yrotation Xrotation
							JOINT LeftHand
							{
								OFFSET 3.483560 -0.000000 -0.000000
								CHANNELS 3 Zrotation Yrotation Xrotation
								JOINT LeftFingerBase
								{
									OFFSET 0.000000 0.000000 0.000000
									CHANNELS 3 Zrotation Yrotation Xrotation
									JOINT LeftHandIndex1
									{
										OFFSET 0.715260 -0.000000 -0.000000
										CHANNELS 3 Zrotation Yrotation Xrotation
										End Site
										{
											OFFSET 0.000000 0.000000 0.000000
										}
									}
								}
								JOINT LThumb
								{
									OFFSET 0.000000 0.000000 0.000000
									CHANNELS 3 Zrotation Yrotation Xrotation
									End Site
									{
										OFFSET 0.000000 0.000000 0.000000
									}
								}
							}
						}
					}
				}
				JOINT RightShoulder
				{
					OFFSET 0.000000 0.000000 0.000000
					CHANNELS 3 Zrotation Yrotation Xrotation
					JOINT RightArm
					{
						OFFSET -3.136600 1.374050 -0.404650
						CHANNELS 3 Zrotation Yrotation Xrotation
						JOINT RightForeArm
						{
							OFFSET -5.241900 -0.000000 -0.000000
							CHANNELS 3 Zrotation Yrotation Xrotation
							JOINT RightHand
							{
								OFFSET -3.444170 -0.000000 -0.000000
								CHANNELS 3 Zrotation Yrotation Xrotation
								JOINT RightFingerBase
								{
									OFFSET 0.000000 0.000000 0.000000
									CHANNELS 3 Zrotation Yrotation Xrotation
									JOINT RightHandIndex1
									{
										OFFSET -0.622530 -0.000000 -0.000000
										CHANNELS 3 Zrotation Yrotation Xrotation
										End Site
										{
											OFFSET 0.000000 0.000000 0.000000
										}
									}
								}
								JOINT RThumb
								{
									OFFSET 0.000000 0.000000 0.000000
									CHANNELS 3 Zrotation Yrotation Xrotation
									End Site
									{
										OFFSET 0.000000 0.000000 0.000000
									}
								}
							}
						}
					}
				}
			}
		}
	}
}
MOTION
Frames: 12
Frame Time: 0.008333
0.782386 17.527913 0.202354 -41.018065 -68.573840 43.179920 -14.997831 -4.164125 -6.699381 3.344205 -4.473107 -7.962320 -0.180487 2.926074 30.880101 1.021068 5.151477 -3.857023 0.245000 0.000000 -44.944900 3.701507 7.725419 3.124875 -4.976713 -20.489268 -110.484783 2.329142 2.277437 -6.159432 -1.047938 -10.132018 2.575416 -4.411100 -0.000000 -70.442900 16.538356 -3.768270 9.285518 1.991766 -3.857874 -2.057194 -8.119804 -4.026463 -2.527611 11.856577 -0.312316 -1.043642 -4.451771 -0.360988 1.565221 0.000000 0.000000 0.000000 -7.050791 -11.317013 3.369053 -65.577264 -15.581591 15.712755 -2.869875 -23.585817 -0.005441 3.680929 -2.892302 -0.099083 -0.066036 0.152914 0.000000 0.000000 0.000000 0.000000 0.000000 0.000000 0.000000 18.804173 -1.766152 2.254892 67.338437 -2.659020 -3.941263 3.924871 12.833147 0.011992 -1.600281 10.030981 -0.146813 0.070983 -0.034002 0.000000 0.000000 0.000000 0.000000 0.000000 0.000000 0.000000 
0.783038 17.479548 0.196619 -39.835541 -68.129500 42.041921 -14.870620 -4.005224 -6.323536 3.043267 -4.448444 -8.481506 -0.246108 2.801894 30.953024 0.973548 4.881480 -5.244564 0.127800 -0.000000 -43.027000 3.684264 7.783305 2.885367 -4.369618 -20.763931 -106.426080 2.155518 2.490666 -10.308305 -1.827320 -10.916522 8.104515 -4.690600 -0.000000 -74.146600 16.405502 -3.762209 8.854029 1.978345 -3.902569 -2.110225 -8.134496 -4.065741 -2.457098 11.946284 -0.894667 -1.238222 -4.457833 -0.362118 1.527077 0.000000 0.000000 0.000000 -6.925552 -11.301950 3.296238 -66.362408 -15.265338 16.198431 -2.876487 -22.913534 -0.004439 3.197393 -2.538767 -0.075981 -0.064212 0.149319 0.000000 0.000000 0.000000 0.000000 0.000000 0.000000 0.000000 18.950398 -2.304780 2.194946 67.381394 -2.296548 -4.706171 3.854573 13.491008 0.012370 -2.015138 10.772233 -0.196999 0.070342 -0.039610 0.000000 0.000000 0.000000 0.000000 0.000000 0.000000 0.000000 
0.786417 17.430734 0.193167 -38.717598 -67.903128 41.054892 -14.798957 -3.890695 -6.072173 2.668756 -4.590840 -8.831805 -0.331870 2.706419 30.954724 0.954395 4.769987 -6.570816 0.024300 0.000000 -41.243500 3.929655 7.663573 2.844533 -3.288951 -20.598893 -107.496735 2.496707 1.772996 -5.342485 -1.764524 -9.752640 9.938515 -4.396201 -0.000000 -77.797500 16.177859 -3.701867 8.417145 1.922105 -3.888805 -2.198096 -8.135752 -4.047820 -2.400891 11.983265 -1.420995 -1.449368 -4.456040 -0.362182 1.481778 0.000000 0.000000 0.000000 -6.868780 -11.198018 3.237207 -67.104218 -15.005636 16.646213 -2.887311 -22.215074 -0.003386 2.664877 -2.149576 -0.054080 -0.062263 0.145485 0.000000 0.000000 0.000000 0.000000 0.000000 0.000000 0.000000 19.006127 -2.756827 2.149746 67.482846 -1.980584 -5.570220 3.791458 14.076412 0.012654 -2.410071 11.420182 -0.248586 0.070211 -0.045224 0.000000 0.000000 0.000000 0.000000 0.000000 0.000000 0.000000 
0.792740 17.381581 0.191385 -37.823586 -67.640319 39.993390 -14.736627 -3.769688 -5.836519 2.329448 -4.885049 -8.716042 -0.408454 2.626941 30.836073 0.960122 4.796139 -7.831770 -0.075500 0.000000 -39.554900 4.093751 7.522126 2.567578 -1.616199 -20.321052 -109.555500 2.941001 0.630470 2.310089 -1.380334 -7.631582 11.459193 -3.729300 -0.000000 -79.888800 16.022441 -3.670188 8.243238 1.875314 -3.877630 -2.243510 -8.127418 -4.034244 -2.366710 11.980906 -1.871857 -1.653535 -4.445756 -0.361139 1.434274 0.000000 0.000000 0.000000 -6.873221 -11.067246 3.199353 -67.802230 -14.794159 17.026093 -2.898138 -21.510308 -0.002404 2.129019 -1.752800 -0.035683 -0.060148 0.142139 0.000000 0.000000 0.000000 0.000000 0.000000 0.000000 0.000000 18.974337 -3.121943 2.118997 67.632092 -1.705654 -6.485789 3.732462 14.573207 0.012767 -2.780103 11.948846 -0.299175 0.070152 -0.050422 0.000000 0.000000 0.000000 0.000000 0.000000 0.000000 0.000000 
0.801269 17.332840 0.191082 -37.375734 -67.320622 39.076512 -14.686109 -3.647052 -5.593583 2.134491 -5.170438 -8.241332 -0.466548 2.558005 30.640324 0.980782 4.886977 -9.046330 -0.179100 0.000000 -37.952200 4.085701 7.407699 2.034799 -0.119510 -20.167536 -110.531808 3.148157 -0.562015 9.676917 -1.046083 -5.833648 13.676468 -3.124699 -0.000000 -79.611100 15.999261 -3.655961 8.320049 1.857547 -3.864271 -2.234135 -8.113710 -4.019962 -2.348463 11.947085 -2.237303 -1.843753 -4.429337 -0.359335 1.386928 0.000000 0.000000 0.000000 -6.932571 -10.899392 3.173943 -68.455456 -14.611531 17.315412 -2.902731 -20.832350 -0.001561 1.639403 -1.379444 -0.021985 -0.057882 0.139280 0.000000 0.000000 0.000000 0.000000 0.000000 0.000000 0.000000 18.872569 -3.382871 2.101336 67.804218 -1.459405 -7.395934 3.679630 14.970447 0.012718 -3.121813 12.339281 -0.346165 0.070183 -0.055145 0.000000 0.000000 0.000000 0.000000 0.000000 0.000000 0.000000 
0.810730 17.285831 0.192379 -37.411714 -67.047616 38.532236 -14.649243 -3.537636 -5.356567 2.078672 -5.338540 -7.661836 -0.508493 2.492178 30.417095 1.013734 5.026933 -10.227678 -0.290200 0.000000 -36.399700 3.960828 7.308176 1.414797 0.897873 -20.045680 -110.209247 3.110074 -1.561032 15.899011 -0.857484 -4.679334 16.276696 -2.697500 0.000000 -77.178000 16.070215 -3.619315 8.499801 1.861439 -3.822481 -2.196656 -8.096780 -3.977946 -2.334957 11.886778 -2.502000 -2.020705 -4.409919 -0.357189 1.341059 0.000000 0.000000 0.000000 -7.049353 -10.637048 3.150655 -69.057045 -14.451722 17.526953 -2.898525 -20.203256 -0.000916 1.245060 -1.062502 -0.013088 -0.055635 0.136712 0.000000 0.000000 0.000000 0.000000 0.000000 0.000000 0.000000 18.725192 -3.512984 2.091905 67.971625 -1.242201 -8.278063 3.636239 15.271455 0.012556 -3.419125 12.579569 -0.386057 0.070482 -0.059508 0.000000 0.000000 0.000000 0.000000 0.000000 0.000000 0.000000 
0.820495 17.241619 0.194389 -37.781629 -66.904728 38.332484 -14.608915 -3.440896 -5.140442 2.058378 -5.399124 -7.079764 -0.540123 2.423027 30.158339 1.065404 5.263983 -11.375128 -0.413800 0.000001 -34.762600 3.801115 7.206215 0.809707 1.569610 -19.787979 -108.994928 2.957686 -2.319574 20.989283 -0.775003 -3.924632 18.728053 -2.364900 0.000000 -73.413300 16.148238 -3.544849 8.701413 1.868574 -3.741552 -2.150379 -8.077554 -3.897040 -2.324821 11.812361 -2.681940 -2.182339 -4.390364 -0.355043 1.298199 0.000000 0.000000 0.000000 -7.198191 -10.304517 3.122896 -69.603242 -14.249613 17.605409 -2.881919 -19.674927 -0.000526 0.984963 -0.825156 -0.008193 -0.053237 0.134153 0.000000 0.000000 0.000000 0.000000 0.000000 0.000000 0.000000 18.564816 -3.534157 2.090491 68.109939 -1.023482 -9.046156 3.602743 15.461541 0.012318 -3.683093 12.673341 -0.418650 0.071201 -0.063582 0.000000 0.000000 0.000000 0.000000 0.000000 0.000000 0.000000 
0.829354 17.201203 0.196629 -38.365274 -66.928616 38.443153 -14.558907 -3.351996 -4.942439 2.014858 -5.361342 -6.591769 -0.565354 2.346574 29.873916 1.136739 5.606094 -12.478277 -0.554400 0.000001 -33.036800 3.669270 7.088683 0.277504 2.022027 -19.295714 -107.286872 2.777479 -2.879430 25.167408 -0.759173 -3.450506 20.711898 -2.115200 0.000000 -69.597600 16.180330 -3.428788 8.858855 1.867990 -3.622497 -2.109227 -8.057060 -3.777551 -2.309220 11.733696 -2.763818 -2.330570 -4.372643 -0.353070 1.258675 0.000000 0.000000 0.000000 -7.375642 -9.843605 3.088254 -70.088149 -14.036993 17.618713 -2.856882 -19.230068 -0.000419 0.889383 -0.696785 -0.006298 -0.051017 0.131622 0.000000 0.000000 0.000000 0.000000 0.000000 0.000000 0.000000 18.414113 -3.435635 2.088185 68.209912 -0.815209 -9.720811 3.579617 15.559716 0.012038 -3.883596 12.624350 -0.439545 0.072263 -0.067307 0.000000 0.000000 0.000000 0.000000 0.000000 0.000000 0.000000 
0.836850 17.165121 0.198268 -39.060243 -67.115373 38.777801 -14.492877 -3.264444 -4.759141 1.906699 -5.248182 -6.211532 -0.587156 2.262028 29.562076 1.226613 6.046487 -13.522963 -0.714000 0.000000 -31.204600 3.595231 6.952015 -0.176700 2.375789 -18.556925 -105.370761 2.600799 -3.308662 28.736149 -0.776039 -3.169515 22.119407 -1.938099 -0.000000 -66.708100 16.130702 -3.279440 8.959923 1.852365 -3.473834 -2.077018 -8.036416 -3.627777 -2.287713 11.662029 -2.767205 -2.464805 -4.357988 -0.351398 1.223068 0.000000 0.000000 0.000000 -7.559367 -9.280393 3.044770 -70.511879 -13.780040 17.552908 -2.823087 -18.890235 -0.000605 0.969112 -0.689533 -0.006806 -0.048887 0.128974 0.000000 0.000000 0.000000 0.000000 0.000000 0.000000 0.000000 18.291740 -3.247741 2.083129 68.264402 -0.597627 -10.257692 3.566662 15.566101 0.011745 -4.019372 12.450586 -0.448641 0.073637 -0.070594 0.000000 0.000000 0.000000 0.000000 0.000000 0.000000 0.000000 
0.842333 17.133783 0.198540 -39.793580 -67.434196 39.265181 -14.410645 -3.172475 -4.581015 1.728370 -5.073750 -5.960120 -0.606639 2.170218 29.237434 1.328987 6.549940 -14.484324 -0.888600 -0.000000 -29.391300 3.587026 6.795441 -0.557023 2.711904 -17.610774 -103.414253 2.429884 -3.656741 31.918087 -0.807423 -3.042164 22.988721 -1.833200 0.000000 -65.264100 15.987247 -3.108242 8.994308 1.819234 -3.307485 -2.057070 -8.017607 -3.459614 -2.262133 11.607730 -2.704943 -2.582009 -4.347546 -0.350174 1.192691 0.000000 0.000000 0.000000 -7.729974 -8.648800 2.992747 -70.873436 -13.441000 17.400846 -2.781038 -18.675744 -0.001051 1.217324 -0.806355 -0.009816 -0.046770 0.126054 0.000000 0.000000 0.000000 0.000000 0.000000 0.000000 0.000000 18.212206 -2.993469 2.073912 68.272962 -0.370709 -10.644891 3.563634 15.494646 0.011469 -4.078851 12.174462 -0.445339 0.075201 -0.073325 0.000000 0.000000 0.000000 0.000000 0.000000 0.000000 0.000000 
0.846321 17.107013 0.197115 -40.559660 -67.844593 39.852846 -14.319594 -3.076580 -4.413334 1.508395 -4.833834 -5.785711 -0.626146 2.075877 28.899641 1.435011 7.061463 -15.363035 -1.071400 0.000000 -27.468400 3.630791 6.624522 -0.893070 3.069969 -16.514929 -101.419240 2.255460 -3.949675 34.861161 -0.845017 -3.030113 23.403847 -1.785600 -0.000000 -65.390500 15.767907 -2.931242 8.999253 1.772840 -3.136010 -2.039295 -7.999299 -3.285218 -2.220038 11.570221 -2.610261 -2.698556 -4.339010 -0.349028 1.162372 0.000000 0.000000 0.000000 -7.883029 -7.904576 2.930831 -71.179174 -13.098669 17.250348 -2.737061 -18.538261 -0.001698 1.612851 -1.040590 -0.016328 -0.045036 0.122924 0.000000 0.000000 0.000000 0.000000 0.000000 0.000000 0.000000 18.165241 -2.709747 2.055078 68.245420 -0.090414 -10.865288 3.570301 15.345743 0.011241 -4.059989 11.820093 -0.430636 0.076903 -0.075388 0.000000 0.000000 0.000000 0.000000 0.000000 0.000000 0.000000 
0.847978 17.084940 0.193213 -41.280703 -68.297536 40.459272 -14.221925 -2.972018 -4.243616 1.260379 -4.545988 -5.716155 -0.645532 1.981183 28.579209 1.534678 7.531423 -16.124179 -1.248201 -0.000000 -25.729100 3.722584 6.439677 -1.186495 3.489651 -15.349791 -99.423094 2.075890 -4.200092 37.608661 -0.881124 -3.082789 23.484755 -1.771700 -0.000001 -66.766900 15.473602 -2.760087 8.959463 1.713205 -2.971985 -2.030279 -7.984277 -3.117702 -2.175216 11.558253 -2.487161 -2.800037 -4.333585 -0.348255 1.136839 0.000000 0.000000 0.000000 -7.996127 -7.148504 2.863738 -71.425606 -12.646652 17.034625 -2.689581 -18.535178 -0.002457 2.116208 -1.366315 -0.027543 -0.043365 0.119306 0.000000 0.000000 0.000000 0.000000 0.000000 0.000000 0.000000 18.160231 -2.411194 2.031022 68.191897 0.208112 -10.943389 3.585176 15.151539 0.011073 -3.948722 11.415400 -0.404936 0.078511 -0.076758 0.000000 0.000000 0.000000 0.000000 0.000000 0.000000 0.000000 
